{"title":"Pearl Harbor *2001*[BluRay][1080p][ENG, POL, CHN]","uid":5895232,"size":16162596567,"categoryP":"video","categoryS":"hd___movies","magnet":"?xt=urn:btih:d8c3e27807cc5149854b831db28b1ffd490c35d3&amp;dn=Pearl+Harbor+%2A2001%2A%5BBluRay%5D%5B1080p%5D%5BENG%2C+POL%2C+CHN%5D&amp;tr=udp%3A%2F%2Ftracker.openbittorrent.com%3A80&amp;tr=udp%3A%2F%2Fopen.demonii.com%3A1337&amp;tr=udp%3A%2F%2Ftracker.coppersurfer.tk%3A6969&amp;tr=udp%3A%2F%2Fexodus.desync.com%3A6969","seeders":0,"leechers":2,"uploader":"albedo040","files":2,"time":1287486267,"description":"Pearl Harbor *2001*[BluRay][1080p][ENG, POL, CHN]\n\nGeneral information:\nCountry: USA\nRelease: 21 May 2001\nGenre: Action, Drama, Romance, War \nDirector: Michael Bay\nScreenplay: Randall Wallace\nOriginal Music: Hans Zimmer\nCinematography by: John Schwartzman\nDuration: 3h 3mn\nLanguage: English, Polish, Chinese (in the separate file) \nSubtitles: English, Polish\nRating: 7.4/10 - 32556 votes \n\nCast:\nBen Affleck  ...  Capt. Rafe McCawley  \nJosh Hartnett  ...  Capt. Danny Walker  \nKate Beckinsale  ...  Nurse Lt. Evelyn Johnson  \nCuba Gooding Jr.  ...  Petty Officer Doris Miller  \nJon Voight  ...  President Franklin Delano Roosevelt  \nAlec Baldwin  ...  Lt. Col. James Doolittle  \nTom Sizemore  ...  Sgt. Earl Sistern  \nWilliam Lee Scott  ...  Lt. Billy Thompson  \nGreg Zola  ...  Lt. Anthony Fusco  \nEwen Bremner  ...  Lt. Red Winkle  \nJaime King  ...  Nurse Betty Bayer (as James King)  \nCatherine Kellner  ...  Nurse Barbara  \nJennifer Garner  ...  Nurse Sandra  \nSara Rue  ...  Nurse Martha  \nMichael Shannon  ...  Lt. Gooz Wood  \n\nPlot:\nPearl Harbor follows the story of two best friends, Rafe and Danny, and their love lives as they go off to join the war. \n\nSpecifications:\nGeneral\nFormat                           : Matroska\nOverall bit rate                 : 11.4 Mbps\n\nVideo\nFormat                           : AVC\nFormat/Info                      : Advanced Video Codec\nFormat profile                   : &lt;a class=&quot;__cf_email__&quot; href=&quot;/cdn-cgi/l/email-protection&quot; data-cfemail=&quot;367e5f515e767a021807&quot;&gt;[email&amp;#160;protected]&lt;/a&gt;&lt;script cf-hash='f9e31' type=&quot;text/javascript&quot;&gt;\n/* &lt;![CDATA[ */!function(){try{var t=&quot;currentScript&quot;in document?document.currentScript:function(){for(var t=document.getElementsByTagName(&quot;script&quot;),e=t.length;e--;)if(t[e].getAttribute(&quot;cf-hash&quot;))return t[e]}();if(t&amp;&amp;t.previousSibling){var e,r,n,i,c=t.previousSibling,a=c.getAttribute(&quot;data-cfemail&quot;);if(a){for(e=&quot;&quot;,r=parseInt(a.substr(0,2),16),n=2;a.length-n;n+=2)i=parseInt(a.substr(n,2),16)^r,e+=String.fromCharCode(i);e=document.createTextNode(e),c.parentNode.replaceChild(e,c)}}}catch(u){}}();/* ]]&gt; */&lt;/script&gt;\nFormat settings, CABAC           : Yes\nFormat settings, ReFrames        : 3 frames\nMuxing mode                      : Container profile=&lt;a class=&quot;__cf_email__&quot; href=&quot;/cdn-cgi/l/email-protection&quot; data-cfemail=&quot;9acff4f1f4f5edf4daaeb4ab&quot;&gt;[email&amp;#160;protected]&lt;/a&gt;&lt;script cf-hash='f9e31' type=&quot;text/javascript&quot;&gt;\n/* &lt;![CDATA[ */!function(){try{var t=&quot;currentScript&quot;in document?document.currentScript:function(){for(var t=document.getElementsByTagName(&quot;script&quot;),e=t.length;e--;)if(t[e].getAttribute(&quot;cf-hash&quot;))return t[e]}();if(t&amp;&amp;t.previousSibling){var e,r,n,i,c=t.previousSibling,a=c.getAttribute(&quot;data-cfemail&quot;);if(a){for(e=&quot;&quot;,r=parseInt(a.substr(0,2),16),n=2;a.length-n;n+=2)i=parseInt(a.substr(n,2),16)^r,e+=String.fromCharCode(i);e=document.createTextNode(e),c.parentNode.replaceChild(e,c)}}}catch(u){}}();/* ]]&gt; */&lt;/script&gt;\nCodec ID                         : V_MPEG4/ISO/AVC\nBit rate                         : 10.1 Mbps\nWidth                            : 1 920 pixels\nHeight                           : 1 080 pixels\nDisplay aspect ratio             : 16:9\nFrame rate                       : 23.976 fps\n\nAudio 1\nFormat                           : AC-3\nFormat/Info                      : Audio Coding 3\nMode extension                   : CM (complete main)\nCodec ID                         : A_AC3\nBit rate mode                    : Constant\nBit rate                         : 640 Kbps\nChannel(s)                       : 6 channels\nChannel positions                : Front: L C R, Side: L R, LFE\nSampling rate                    : 48.0 KHz\nStream size                      : 838 MiB (6%)\nTitle                            : English\n\nAudio 2\nFormat                           : AC-3\nFormat/Info                      : Audio Coding 3\nMode extension                   : CM (complete main)\nCodec ID                         : A_AC3\nBit rate mode                    : Constant\nBit rate                         : 448 Kbps\nChannel(s)                       : 6 channels\nChannel positions                : Front: L C R, Side: L R, LFE\nSampling rate                    : 48.0 KHz\nStream size                      : 587 MiB (4%)\nTitle                            : Polish\nLanguage                         : Polish\n\nText \nFormat                           : UTF-8\nCodec ID                         : S_TEXT/UTF8\nCodec ID/Info                    : UTF-8 Plain Text\n\nAudio Chinese (in the separate file)\nFormat                           : AC-3\nFormat/Info                      : Audio Coding 3\nMode extension                   : CM (complete main)\nBit rate mode                    : Constant\nBit rate                         : 384 Kbps\nChannel(s)                       : 6 channels\nChannel positions                : Front: L C R, Side: L R, LFE\nSampling rate                    : 48.0 KHz\n","torrent":{"xt":"urn:btih:d8c3e27807cc5149854b831db28b1ffd490c35d3","amp;dn":"Pearl+Harbor+%2A2001%2A%5BBluRay%5D%5B1080p%5D%5BENG%2C+POL%2C+CHN%5D","amp;tr":["udp%3A%2F%2Ftracker.openbittorrent.com%3A80","udp%3A%2F%2Fopen.demonii.com%3A1337","udp%3A%2F%2Ftracker.coppersurfer.tk%3A6969","udp%3A%2F%2Fexodus.desync.com%3A6969"],"infoHash":"d8c3e27807cc5149854b831db28b1ffd490c35d3","infoHashBuffer":{"type":"Buffer","data":[216,195,226,120,7,204,81,73,133,75,131,29,178,139,31,253,73,12,53,211]},"announce":[],"urlList":[]}}